<?xml version="1.0" standalone="no"?>
<!DOCTYPE svg PUBLIC "-//W3C//DTD SVG 20010904//EN"
 "http://www.w3.org/TR/2001/REC-SVG-20010904/DTD/svg10.dtd">
<svg version="1.0" xmlns="http://www.w3.org/2000/svg"
 width="1024.000000pt" height="1024.000000pt" viewBox="0 0 1024.000000 1024.000000"
 preserveAspectRatio="xMidYMid meet">

<g transform="translate(0.000000,1024.000000) scale(0.100000,-0.100000)"
fill="#000000" stroke="none">
<path d="M4099 8237 c-47 -31 -104 -148 -131 -267 -32 -140 -32 -463 -1 -635
44 -240 112 -441 225 -665 96 -188 168 -292 391 -564 18 -22 18 -24 -41 -112
-69 -103 -132 -225 -202 -390 -27 -63 -61 -131 -75 -150 -15 -19 -45 -73 -66
-119 -33 -71 -41 -99 -46 -170 -5 -78 -8 -85 -27 -85 -12 0 -28 -5 -36 -10
-11 -7 -3 -8 26 -4 l40 6 12 -53 c7 -28 11 -53 10 -54 -2 -2 -19 -12 -38 -24
-39 -23 -30 -29 10 -6 14 8 28 14 31 15 4 0 21 -21 37 -47 71 -110 225 -220
366 -262 l73 -22 -43 -117 c-58 -161 -64 -192 -20 -112 39 69 88 125 148 167
l39 26 152 -17 c84 -9 194 -16 245 -16 l92 0 0 -27 c0 -16 -3 -58 -6 -94 l-7
-67 -70 -5 c-61 -4 -74 -8 -94 -31 -27 -31 -30 -68 -7 -90 11 -12 36 -16 90
-16 l75 0 -3 -322 c-3 -291 -1 -328 15 -375 33 -94 110 -143 227 -143 71 0
124 25 177 83 113 123 162 341 129 576 -9 63 -19 117 -22 120 -3 3 -3 -41 1
-99 12 -182 -26 -349 -106 -468 -44 -67 -97 -107 -153 -118 -38 -7 -39 -6 -32
17 26 86 28 101 17 112 -8 8 -11 2 -11 -25 0 -50 -19 -98 -39 -98 -45 0 -81
61 -97 165 -9 60 26 369 62 548 l6 27 99 0 c93 0 102 2 124 25 18 17 25 35 25
63 0 39 0 39 -46 46 -26 3 -80 6 -120 6 l-74 0 0 73 c0 124 1 125 119 129 l64
3 45 -65 c25 -36 42 -56 39 -45 -18 61 -29 116 -24 128 3 7 25 19 48 26 24 7
80 30 125 51 94 45 211 147 253 221 26 45 28 47 51 33 14 -7 32 -13 40 -14 8
0 0 8 -19 18 -19 9 -34 19 -34 22 0 3 5 28 12 56 l12 52 36 -8 c19 -5 32 -5
27 0 -5 5 -19 10 -32 12 -21 3 -23 8 -26 85 l-4 82 47 4 46 3 -51 2 c-49 2
-52 3 -58 33 -3 18 -28 75 -55 128 -27 53 -59 132 -71 175 -42 150 -126 347
-195 457 l-24 37 21 18 c12 11 60 64 108 119 378 439 601 1070 559 1582 -22
278 -102 433 -224 433 -71 0 -221 -116 -339 -263 -307 -383 -467 -857 -483
-1435 -3 -111 -9 -205 -14 -207 -4 -3 -14 -2 -22 1 -12 4 -14 17 -10 60 7 67
-9 77 -73 46 l-44 -22 -26 40 c-14 21 -37 46 -50 55 -45 29 -60 20 -105 -62
-46 -83 -71 -113 -94 -113 -13 0 -15 26 -15 173 -1 678 -205 1260 -570 1627
-63 64 -123 115 -151 128 -60 29 -126 29 -170 -1z m146 -48 c85 -44 265 -245
361 -404 128 -209 216 -435 269 -693 42 -199 57 -367 58 -620 l0 -233 26 5
c14 3 45 8 68 11 48 8 61 22 112 123 27 54 34 62 47 51 21 -17 44 -64 44 -89
0 -25 -2 -25 61 0 28 12 53 19 55 17 2 -2 -5 -20 -16 -40 -11 -20 -20 -41 -20
-45 0 -4 30 -14 68 -21 37 -7 78 -15 92 -18 l25 -5 1 209 c4 633 195 1183 537
1549 219 233 312 223 379 -43 20 -77 23 -113 22 -293 0 -181 -4 -222 -28 -345
-54 -278 -173 -574 -330 -818 -70 -110 -175 -244 -294 -377 -49 -54 -49 -54
-32 -80 82 -117 148 -261 200 -435 17 -60 54 -157 80 -215 64 -138 69 -157 38
-163 -22 -4 -22 -4 3 -6 22 -1 27 -7 33 -38 9 -60 7 -91 -9 -106 -8 -9 -10
-17 -5 -19 6 -2 6 -17 -1 -42 -11 -40 -16 -41 -74 -22 -11 4 -4 -1 15 -11 19
-9 36 -18 38 -19 9 -5 -31 -65 -74 -113 -82 -91 -212 -161 -371 -198 -67 -16
-121 -18 -398 -17 -307 0 -325 1 -445 27 -246 52 -420 144 -500 265 -16 25
-30 50 -30 56 0 6 27 22 61 35 78 30 72 36 -8 8 -34 -12 -64 -19 -66 -17 -3 3
-8 21 -12 41 l-7 36 59 11 58 11 -57 -4 c-32 -2 -60 0 -63 5 -3 4 -2 36 2 70
l6 62 45 -5 c28 -3 39 -1 31 4 -8 5 -24 9 -36 9 -12 0 -24 4 -28 10 -6 10 26
79 86 180 21 36 65 130 99 210 64 153 147 300 218 387 l42 53 -92 107 c-354
411 -542 837 -589 1333 -32 346 57 690 180 690 14 0 44 -9 66 -21z"/>
<path d="M4197 7932 c-45 -49 -77 -204 -77 -366 1 -365 127 -741 370 -1103 92
-138 233 -313 251 -313 35 0 64 329 49 562 -22 350 -96 644 -212 851 -109 193
-280 387 -342 387 -13 0 -30 -8 -39 -18z m134 -92 c75 -77 172 -217 223 -319
106 -213 157 -449 176 -815 9 -171 1 -478 -13 -492 -4 -4 -103 121 -183 233
-132 185 -259 442 -319 648 -50 174 -68 312 -62 495 5 165 19 244 53 298 24
38 52 27 125 -48z"/>
<path d="M6140 7873 c-104 -85 -237 -262 -320 -424 -64 -125 -134 -359 -166
-557 -20 -123 -30 -568 -16 -671 15 -106 22 -108 94 -31 193 208 388 531 481
795 114 326 138 730 53 893 -24 46 -66 44 -126 -5z m86 -1 c21 -13 33 -50 49
-137 49 -283 -25 -657 -197 -993 -67 -133 -200 -335 -290 -443 -104 -126 -98
-135 -98 123 0 524 68 849 238 1138 57 98 182 253 234 290 44 32 47 33 64 22z"/>
<path d="M4609 5847 c-36 -24 -68 -71 -57 -83 4 -3 21 5 38 19 37 31 99 50
135 41 21 -5 24 -3 19 11 -15 39 -86 45 -135 12z"/>
<path d="M5613 5835 l-28 -26 36 7 c43 7 102 -15 142 -53 l27 -27 0 25 c0 28
-41 76 -77 90 -40 15 -70 10 -100 -16z"/>
<path d="M4624 5599 c-17 -5 -39 -18 -49 -29 -13 -14 -25 -18 -44 -13 l-25 6
18 -28 18 -28 -26 5 c-27 5 -36 -9 -12 -18 11 -4 14 -26 13 -97 -2 -157 39
-203 188 -214 96 -7 119 -1 139 41 53 111 -29 334 -137 375 -32 13 -40 13 -83
0z m106 -89 c40 -40 11 -110 -47 -110 -37 0 -63 27 -63 66 0 57 69 85 110 44z"/>
<path d="M5572 5561 c-28 -21 -51 -51 -74 -98 -31 -63 -33 -75 -33 -165 0
-124 5 -131 105 -130 91 1 173 25 198 57 29 36 45 117 39 190 -4 58 -3 64 17
71 19 6 19 7 -6 11 -31 5 -35 15 -13 33 21 17 12 24 -14 10 -14 -7 -21 -7 -21
0 0 21 -65 50 -111 50 -35 0 -56 -7 -87 -29z m127 -67 c25 -32 26 -52 5 -82
-33 -47 -124 -16 -124 43 0 61 81 87 119 39z"/>
<path d="M5047 5210 c-90 -27 -73 -93 40 -166 52 -33 55 -37 49 -67 -9 -48
-48 -77 -103 -77 -38 0 -50 5 -79 34 -19 19 -34 41 -34 50 0 9 -4 16 -10 16
-17 0 -11 -36 13 -71 43 -64 131 -88 192 -50 30 18 32 18 65 0 90 -49 221 9
220 98 l-1 28 -19 -36 c-33 -62 -94 -89 -155 -69 -80 26 -81 93 -1 144 71 46
108 88 104 117 -2 19 -14 28 -53 41 -53 18 -179 23 -228 8z m194 -21 c19 -7
40 -18 48 -25 36 -34 -60 -114 -136 -114 -30 0 -51 8 -85 34 -48 37 -61 57
-52 80 12 31 159 47 225 25z"/>
<path d="M6008 5203 c6 -2 18 -2 25 0 6 3 1 5 -13 5 -14 0 -19 -2 -12 -5z"/>
<path d="M5993 5063 c15 -2 39 -2 55 0 15 2 2 4 -28 4 -30 0 -43 -2 -27 -4z"/>
<path d="M5955 5000 c27 -12 43 -12 25 0 -8 5 -22 9 -30 9 -10 0 -8 -3 5 -9z"/>
<path d="M4088 5253 c12 -2 32 -2 45 0 12 2 2 4 -23 4 -25 0 -35 -2 -22 -4z"/>
<path d="M6010 4693 c-30 -11 -70 -57 -76 -89 -8 -45 19 -99 61 -118 41 -20
58 -20 95 -1 41 21 60 53 60 100 0 47 -19 79 -60 100 -30 15 -53 18 -80 8z"/>
<path d="M6746 4359 c-86 -18 -170 -63 -232 -126 -71 -71 -106 -132 -133 -237
-50 -191 -7 -381 113 -501 166 -165 438 -151 605 31 l61 67 0 -39 c0 -54 16
-103 42 -131 17 -18 32 -23 70 -23 54 0 88 13 88 34 0 8 -9 33 -20 57 -18 41
-20 67 -20 430 0 366 -1 388 -19 410 -15 19 -29 24 -65 24 -57 0 -63 -9 -72
-95 l-6 -66 -62 61 c-45 46 -77 68 -120 84 -70 26 -161 34 -230 20z m221 -140
c70 -26 125 -80 162 -158 23 -50 26 -68 26 -171 0 -105 -2 -120 -28 -175 -72
-153 -225 -226 -381 -181 -248 72 -292 486 -69 647 85 60 191 74 290 38z"/>
<path d="M3239 4337 c-79 -27 -127 -62 -177 -127 -20 -27 -40 -49 -44 -49 -5
-1 -8 18 -8 42 0 53 -16 112 -36 132 -19 19 -113 21 -137 3 -15 -12 -15 -17
-2 -62 12 -40 15 -122 15 -436 0 -377 1 -388 21 -414 16 -21 29 -26 63 -26 74
0 74 -1 78 300 4 250 6 268 28 323 13 32 43 80 67 107 58 65 112 90 192 90
118 0 181 -62 201 -195 5 -39 10 -185 10 -326 0 -233 2 -259 18 -279 14 -17
29 -23 61 -23 76 0 75 -3 81 311 l5 277 29 62 c31 68 95 135 151 159 19 8 62
14 96 14 85 0 138 -31 173 -102 l26 -52 0 -275 c0 -152 5 -294 10 -316 12 -55
40 -75 104 -75 65 0 82 10 71 41 -5 13 -11 177 -14 364 -6 317 -7 343 -27 385
-29 62 -67 105 -123 138 -41 24 -56 27 -141 27 -76 0 -108 -5 -158 -24 -69
-26 -155 -97 -193 -158 l-23 -36 -19 52 c-26 67 -92 134 -154 155 -67 23 -165
20 -244 -7z"/>
<path d="M5990 4347 l-25 -13 -7 -394 c-8 -462 -6 -491 41 -527 19 -15 105
-17 131 -3 17 9 17 13 4 56 -11 37 -14 131 -14 440 l0 393 -22 25 c-28 31 -74
41 -108 23z"/>
<path d="M4791 4345 c-1 -5 15 -62 34 -125 73 -235 113 -468 101 -582 -11
-105 -50 -168 -105 -168 -15 0 -23 10 -32 43 -6 23 -15 53 -19 67 -15 47 -11
-12 4 -63 14 -46 13 -47 -7 -47 -37 0 -100 43 -139 95 -53 69 -85 139 -109
242 -18 75 -21 107 -15 213 3 69 8 136 11 150 5 23 5 24 -4 3 -44 -98 -55
-356 -21 -489 40 -158 121 -270 214 -295 59 -16 157 -6 200 20 100 62 120 246
55 499 -36 137 -166 475 -168 437z"/>
<path d="M5021 3173 c-31 -21 -27 -68 7 -102 15 -15 34 -30 42 -33 12 -4 12
-9 -3 -32 -27 -40 -76 -66 -125 -66 l-43 0 20 26 c47 59 2 164 -70 164 -5 0
-21 -11 -34 -25 -31 -30 -32 -72 -5 -125 l20 -40 -25 -6 c-56 -14 -137 23
-169 77 -34 58 -10 129 45 129 18 0 29 5 29 14 0 19 -46 29 -73 15 -78 -42
-69 -169 18 -235 33 -25 46 -28 104 -28 112 2 154 2 203 0 55 -1 89 20 131 82
16 23 34 42 42 42 8 0 26 -19 42 -42 44 -65 73 -81 140 -80 101 3 107 3 165
-4 77 -9 138 20 179 84 40 63 36 134 -9 168 -24 19 -82 18 -82 -1 0 -8 8 -15
18 -15 60 0 81 -72 40 -138 -33 -53 -127 -87 -183 -66 -15 6 -15 8 1 25 9 10
22 35 29 55 23 69 -14 122 -76 109 -53 -12 -78 -106 -43 -160 l16 -25 -41 0
c-49 0 -91 20 -120 56 l-20 26 39 37 c32 31 40 45 40 74 0 26 -6 39 -19 47
-45 23 -101 -32 -101 -100 0 -20 -5 -30 -15 -30 -11 0 -15 11 -15 39 0 67 -56
115 -99 84z m59 -42 c13 -24 13 -61 1 -61 -13 0 -51 50 -51 66 0 21 38 17 50
-5z m160 4 c0 -23 -30 -65 -46 -65 -19 0 -18 30 2 58 17 25 44 29 44 7z m-343
-81 c21 -37 21 -42 7 -62 -20 -29 -38 -28 -63 4 -23 30 -27 74 -9 92 20 20 41
9 65 -34z m551 5 c3 -38 -27 -89 -53 -89 -20 0 -54 52 -37 58 6 2 12 9 12 16
0 25 32 57 53 54 17 -2 23 -11 25 -39z"/>
</g>
</svg>
